# xmcd
#
# Track frame offsets: 
#        150
#        15375
#        32297
#        48775
#        63322
#        83350
#        101540
#        120060
#        133297
#        148055
#
# Disc length: 2256 seconds
#
# Revision: 5
# Processed by: cddbd v1.5.2PL0 Copyright (c) Steve Scherf et al.
# Submitted via: ExactAudioCopy v1.0b3
#
DISCID=6d08ce0a
DTITLE=Billy Dean - It's What I Do
DYEAR=1996
DGENRE=Country
TTITLE0=It's What I Do
TTITLE1=That Girl's Been Spyin' On Me
TTITLE2=In The Name Of Love
TTITLE3=Down To Your Last One More
TTITLE4=I Wouldn't Be A Man
TTITLE5=When Our Backs Are Against The Wall
TTITLE6=Play Something We Can Dance To
TTITLE7=The Mountain Moved
TTITLE8=Don't Threaten Me With A Good Time
TTITLE9=Leavin' Line
EXTD=
EXTT0=
EXTT1=
EXTT2=
EXTT3=
EXTT4=
EXTT5=
EXTT6=
EXTT7=
EXTT8=
EXTT9=
PLAYORDER=
